<svg width="42" height="42" viewBox="0 0 42 42" fill="none" xmlns="http://www.w3.org/2000/svg">
<path d="M19.25 12.25H29.75V15.75H19.25V12.25ZM19.25 19.25H29.75V22.75H19.25V19.25ZM19.25 26.25H29.75V29.75H19.25V26.25ZM12.25 12.25H15.75V15.75H12.25V12.25ZM12.25 19.25H15.75V22.75H12.25V19.25ZM12.25 26.25H15.75V29.75H12.25V26.25ZM35.175 5.25H6.825C5.95 5.25 5.25 5.95 5.25 6.825V35.175C5.25 35.875 5.95 36.75 6.825 36.75H35.175C35.875 36.75 36.75 35.875 36.75 35.175V6.825C36.75 5.95 35.875 5.25 35.175 5.25ZM33.25 33.25H8.75V8.75H33.25V33.25Z" fill="white"/>
</svg>
