<svg width="24" height="24" viewBox="0 0 24 24" fill="none" xmlns="http://www.w3.org/2000/svg">
<g clip-path="url(#clip0)">
<path d="M0 19.678H4.32198V24H0V19.678ZM0 19.678H4.32198V24H0V19.678ZM0 13.1187H4.32198V17.4407H0V13.1187ZM0 6.55934H4.32198V10.8813H0V6.55934ZM0 0H4.32198V4.32196H0V0ZM6.35192 19.678H24V24H6.35192V19.678ZM6.35192 19.678H24V24H6.35192V19.678ZM6.35192 13.1187H24V17.4407H6.35192V13.1187ZM6.35192 6.55934H24V10.8813H6.35192V6.55934ZM6.35192 0H24V4.32196H6.35192V0V0Z" fill="white"/>
</g>
<defs>
<clipPath id="clip0">
<rect width="24" height="24" fill="white"/>
</clipPath>
</defs>
</svg>
