<svg width="33" height="33" viewBox="0 0 33 33" fill="none" xmlns="http://www.w3.org/2000/svg">
<path d="M18.5625 7.5625C20.075 7.5625 21.3125 6.325 21.3125 4.8125C21.3125 3.3 20.075 2.0625 18.5625 2.0625C17.05 2.0625 15.8125 3.3 15.8125 4.8125C15.8125 6.325 17.05 7.5625 18.5625 7.5625ZM13.475 12.2375L9.625 31.625H12.5125L14.9875 20.625L17.875 23.375V31.625H20.625V21.3125L17.7375 18.5625L18.5625 14.4375C20.35 16.5 23.1 17.875 26.125 17.875V15.125C23.5125 15.125 21.3125 13.75 20.2125 11.825L18.8375 9.625C18.4662 9.03122 17.8957 8.58895 17.2281 8.37734C16.5605 8.16572 15.8393 8.19857 15.1938 8.47L8.25 11.4125V17.875H11V13.2L13.475 12.2375Z" fill="white"/>
</svg>
