<svg width="41" height="41" viewBox="0 0 41 41" fill="none" xmlns="http://www.w3.org/2000/svg">
<path d="M34.0607 22.2083C33.6805 25.2191 32.3095 28.0178 30.1636 30.1636C28.0178 32.3095 25.2191 33.6805 22.2083 34.0608V37.5833H18.7917V34.0608C15.7809 33.6805 12.9822 32.3095 10.8364 30.1636C8.69052 28.0178 7.3195 25.2191 6.93925 22.2083H3.41666V18.7917H6.93925C7.3195 15.7809 8.69052 12.9822 10.8364 10.8364C12.9822 8.69053 15.7809 7.31951 18.7917 6.93925V3.41667H22.2083V6.93925C25.2191 7.31951 28.0178 8.69053 30.1636 10.8364C32.3095 12.9822 33.6805 15.7809 34.0607 18.7917H37.5833V22.2083H34.0607ZM20.5 30.75C23.2185 30.75 25.8256 29.6701 27.7478 27.7479C29.6701 25.8256 30.75 23.2185 30.75 20.5C30.75 17.7815 29.6701 15.1744 27.7478 13.2522C25.8256 11.3299 23.2185 10.25 20.5 10.25C17.7815 10.25 15.1744 11.3299 13.2522 13.2522C11.3299 15.1744 10.25 17.7815 10.25 20.5C10.25 23.2185 11.3299 25.8256 13.2522 27.7479C15.1744 29.6701 17.7815 30.75 20.5 30.75ZM20.5 25.625C21.8592 25.625 23.1628 25.0851 24.1239 24.1239C25.085 23.1628 25.625 21.8592 25.625 20.5C25.625 19.1408 25.085 17.8372 24.1239 16.8761C23.1628 15.915 21.8592 15.375 20.5 15.375C19.1408 15.375 17.8372 15.915 16.8761 16.8761C15.915 17.8372 15.375 19.1408 15.375 20.5C15.375 21.8592 15.915 23.1628 16.8761 24.1239C17.8372 25.0851 19.1408 25.625 20.5 25.625Z" fill="white"/>
</svg>
